<svg xmlns="http://www.w3.org/2000/svg" xmlns:xlink="http://www.w3.org/1999/xlink" width="32" zoomAndPan="magnify" viewBox="0 0 384 383.999986" height="32" preserveAspectRatio="xMidYMid meet" version="1.0"><defs><clipPath id="f64b36595c"><path d="M 55.703125 108.707031 L 328.253906 108.707031 L 328.253906 272.253906 L 55.703125 272.253906 Z M 55.703125 108.707031 " clip-rule="nonzero"/></clipPath></defs><g clip-path="url(#f64b36595c)"><path fill="#38bdf8" d="M 191.980469 108.707031 C 155.640625 108.707031 132.925781 126.878906 123.84375 163.222656 C 137.46875 145.050781 153.367188 138.238281 171.539062 142.78125 C 181.90625 145.371094 189.316406 152.894531 197.515625 161.21875 C 210.875 174.78125 226.339844 190.480469 260.117188 190.480469 C 296.457031 190.480469 319.167969 172.308594 328.253906 135.964844 C 314.628906 154.136719 298.726562 160.953125 280.558594 156.410156 C 270.191406 153.820312 262.78125 146.292969 254.582031 137.96875 C 241.21875 124.40625 225.753906 108.707031 191.980469 108.707031 Z M 123.84375 190.480469 C 87.503906 190.480469 64.789062 208.652344 55.703125 244.996094 C 69.332031 226.824219 85.230469 220.011719 103.402344 224.554688 C 113.769531 227.148438 121.175781 234.667969 129.378906 242.992188 C 142.738281 256.554688 158.203125 272.253906 191.980469 272.253906 C 228.320312 272.253906 251.03125 254.082031 260.117188 217.738281 C 246.488281 235.910156 230.589844 242.726562 212.421875 238.183594 C 202.054688 235.59375 194.644531 228.066406 186.441406 219.742188 C 173.082031 206.179688 157.617188 190.480469 123.84375 190.480469 Z M 123.84375 190.480469 " fill-opacity="1" fill-rule="evenodd"/></g></svg>